<?xml version="1.0" standalone="no"?>
<!DOCTYPE svg PUBLIC "-//W3C//DTD SVG 20010904//EN"
 "http://www.w3.org/TR/2001/REC-SVG-20010904/DTD/svg10.dtd">
<svg version="1.0" xmlns="http://www.w3.org/2000/svg"
 width="232.000000pt" height="232.000000pt" viewBox="0 0 232.000000 232.000000"
 preserveAspectRatio="xMidYMid meet">
<metadata>
Created by potrace 1.14, written by Peter Selinger 2001-2017
</metadata>
<g transform="translate(0.000000,232.000000) scale(0.100000,-0.100000)"
fill="#000000" stroke="none">
<path d="M216 2101 l-69 -70 35 -35 36 -36 71 70 71 70 -31 35 c-17 19 -34 35
-38 35 -4 0 -38 -31 -75 -69z"/>
<path d="M1972 2136 l-32 -34 70 -72 71 -71 36 36 36 36 -69 70 c-37 38 -71
69 -74 69 -3 0 -20 -15 -38 -34z"/>
<path d="M337 1992 c-37 -37 -67 -72 -67 -76 0 -5 39 -49 87 -96 l87 -87 68
66 c37 36 68 70 68 75 0 5 -40 49 -88 97 l-89 88 -66 -67z"/>
<path d="M1808 1970 c-49 -48 -88 -92 -88 -96 0 -10 123 -134 133 -134 12 0
177 164 177 176 0 5 -30 40 -67 76 l-68 67 -87 -89z"/>
<path d="M1579 1742 c-42 -42 -90 -89 -106 -105 l-30 -27 -76 77 c-42 42 -78
72 -78 65 -1 -7 -2 -15 -3 -19 -3 -13 -15 -96 -22 -148 -3 -27 -8 -57 -9 -66
-2 -9 -6 -40 -10 -70 -4 -30 -12 -89 -19 -132 -7 -42 -11 -79 -9 -80 2 -2 40
2 86 9 45 6 102 15 127 19 25 3 56 8 70 10 14 2 45 6 70 9 25 3 59 8 75 11 17
3 45 8 63 11 l34 5 -76 77 -76 76 23 24 c12 14 59 62 104 107 l82 81 -72 72
-72 71 -76 -77z"/>
<path d="M572 1747 c-34 -34 -62 -67 -62 -72 0 -4 39 -48 88 -95 48 -48 93
-94 100 -102 11 -14 1 -27 -65 -92 -43 -42 -72 -77 -65 -77 7 -1 15 -2 20 -3
4 -1 34 -6 67 -10 32 -4 68 -10 79 -12 11 -2 56 -8 100 -14 45 -6 92 -13 106
-15 14 -2 48 -7 75 -11 28 -3 55 -7 60 -8 6 0 9 6 8 14 -1 8 -14 98 -28 200
-14 102 -28 201 -31 220 -14 101 -7 100 -91 16 -41 -42 -76 -76 -77 -76 -2 0
-48 45 -103 100 -55 55 -104 100 -109 100 -5 0 -38 -28 -72 -63z"/>
<path d="M1035 1099 c-22 -4 -65 -10 -95 -14 -30 -3 -62 -8 -70 -10 -8 -2 -39
-7 -69 -10 -30 -4 -62 -8 -71 -10 -9 -2 -39 -6 -66 -10 -27 -3 -58 -8 -69 -10
-11 -2 -24 -4 -29 -4 -6 -1 10 -21 35 -45 24 -24 59 -59 77 -79 l33 -34 -105
-104 -105 -104 71 -72 72 -72 104 105 105 105 25 -23 c14 -13 49 -47 78 -77
30 -30 54 -50 55 -45 0 5 2 16 4 24 2 13 25 167 41 285 4 22 12 77 18 123 7
45 10 84 7 86 -3 1 -24 -1 -46 -5z"/>
<path d="M1217 1104 c-2 -2 3 -43 10 -91 7 -49 15 -108 18 -133 3 -25 7 -52
10 -60 2 -8 6 -37 10 -65 5 -49 17 -133 21 -147 1 -5 2 -13 3 -20 0 -7 36 23
78 65 l76 77 25 -22 c13 -13 59 -58 101 -100 42 -43 81 -78 86 -78 6 0 41 30
78 68 l67 67 -88 86 c-140 138 -135 114 -46 203 43 42 73 76 68 77 -5 0 -18 2
-29 4 -11 3 -56 9 -100 15 -44 6 -91 13 -105 15 -56 8 -98 14 -145 20 -27 4
-69 10 -92 15 -23 4 -44 6 -46 4z"/>
<path d="M348 512 l-86 -88 70 -72 71 -73 88 90 c49 50 89 94 89 99 0 10 -126
132 -137 132 -4 -1 -47 -40 -95 -88z"/>
<path d="M1779 532 l-66 -67 91 -92 92 -93 71 73 71 72 -87 88 c-48 48 -92 87
-97 87 -5 0 -39 -31 -75 -68z"/>
<path d="M183 345 l-38 -35 73 -72 72 -73 35 37 35 36 -70 71 -70 71 -37 -35z"/>
<path d="M2010 309 l-72 -71 36 -36 37 -36 72 72 72 72 -37 35 -36 35 -72 -71z"/>
</g>
</svg>
